<?xml version="1.0" encoding="UTF-8"?>
<svg version="1.1" viewBox="0 0 2464 528" width="616" height="132" xmlns="http://www.w3.org/2000/svg">
<path transform="translate(1470,27)" d="m0 0h30l44 2 42 4 39 6 30 6 33 9 32 11 21 9 26 13 16 10 17 12 11 9 12 11 12 13 12 17 9 16 6 15 5 16 3 18 1 10v12l-3 24-5 21-8 22-9 19-12 20-12 17-5 6-2 1h-12v-4l8-9 12-17 8-13 6-10 9-20 6-18 3-14 1-7v-30l-3-16-5-15-8-17-12-18-11-12-4-5-8-7-15-12-17-11-16-9-22-11-28-11-32-10-37-9-41-7-35-4-43-3h-74l-37 2-44 4-46 6-46 8-55 12-45 12-29 9-36 12-42 16-30 13-31 14-20 11 51 1 3 8 22 111 9 45v5l-7 1-49-1-1-1-3-23v-4l-57 1-13 27-35 1h-21l1-5 28-50 13-23 28-50 9-16 10-18 1-3-26 14-19 12-30 20-19 14-16 13-13 11h-2v2l-7 5v1l18 5 21 7 1 4-8 15-11 15h-2l-2 4-12 9-14 7-14 4-12 2-13 1-18-1-18-4-12-5-10-8-9-12-6-13-3-13v-21l4-22 6-18 7-14 8-11 9-10 14-10 16-8 15-4 15-2h21l19 3 12 5 9 6 7 7 6 10 3 7 2 9v7l-3 2-17 3-24 5h-6l-2-10-7-8-5-3-4-1h-13l-11 4-9 7-6 9-5 11-5 25v17l3 8 4 6 9 4h6l11-14 18-20 24-24 11-9 5-3 28-7-1-4v-10l5-5 17-12 15-10 21-13 24-14 22-12 27-14 36-16 26-11 34-13 28-10 46-14 46-12 46-10 46-8 38-5 41-4 34-2zm-490 150m17 49-26 52v2h33l-1-14-5-40zm-163 46-1 4-7 10-12 14h3l8-7 12-18-1-3z" fill="#fff"/>
<path transform="translate(224,52)" d="m0 0h32l1 2-8 15-8 16-18 33-15 29-11 20-6 11-14 27-12 22-13 25-5 8 1 6 18 34 13 24 12 23 12 22 12 23 12 22 12 23 3-3 13-24 17-32 30-56 18-34 12-22 1-5-9-16-8-16-14-26-10-18-8-16-5-9 1-7 11-19 3-6h4l8 16 18 34 15 28 17 32 11 20 1 1v6l-15 28-12 22-7 14-12 22-12 23-8 15-12 22-14 27-18 33-2 1h-33l-6-10-18-34-17-32-15-28-17-32-15-28-17-32-6-11v-6l9-16 12-23 12-22 12-23 12-22 18-34 17-32 15-28 4-6z" fill="#fff"/>
<path transform="translate(288,52)" d="m0 0h31l4 4 14 27 12 22 14 27 7 12 8 16 12 22 13 25 12 22 12 23 5 8-1 6-15 28-13 25-12 22-13 25-12 22-18 34-17 32-9 17-2 1h-33l1-5 10-18 14-27 7-12 7-14 9-16 6-12 10-18 7-14 9-16 6-12 10-18 13-26-1-5-8-16-17-32-11-20-7-14-12-22-13-24-8-16-14-26-3-2-2 7-12 22-12 23-7 12-7 14-12 22-14 27-18 33-8 16 10 19 13 24 17 32 13 24 2 5-9 19-8 13-3-3-8-16-11-20-8-16-14-26-10-18-6-11-8-16-5-11 8-16 14-26 12-23 12-22 12-23 12-22 18-34 15-28 8-15z" fill="#fff"/>
<path transform="translate(1395,174)" d="m0 0h100l15 2 13 5 5 4 7 10 3 11v7l-3 13-6 11-6 7-9 6-7 3 11 6 7 6 5 9 2 9-1 12-4 13-7 12-7 8-12 8-12 4-18 3-32 1h-75l-1-4 18-100 9-49 3-16zm48 36-2 3-4 23v4h28l9-3 5-5 4-9-2-7-6-5-8-1zm-11 63-2 2-5 27v3h36l9-4 6-7 1-4v-7l-3-5-4-3-5-1-15-1z" fill="#fff"/>
<path transform="translate(1119,174)" d="m0 0h96l20 2 10 3 10 6 7 9 3 9 1 5v8l-3 14-4 10-9 12-8 7-8 5-11 4h-4v2l6 2 8 8 8 16 14 41 1 6-30 1h-29l-3-3-7-18-12-33-5-10-6-3-9-1-6 32-6 34-1 1-51 1-4-1 5-28 9-51 9-48 7-40zm52 36-5 1-3 15-2 12v5l25-1 12-3 7-5 4-7v-8l-3-5-5-3-15-1z" fill="#fff"/>
<path transform="translate(1579,174)" d="m0 0h140l1 5-4 20-2 11-2 2h-87l-2 16-2 8h80l1 5-5 29-1 2-81 1-6 30h88l2 4-6 34-1 2-143 1-2-1 2-14 17-94 9-51 2-9z" fill="#fff"/>
<path transform="translate(1305,174)" d="m0 0h51l2 1-2 14-10 56-9 48-8 44-2 6-24 1h-22l-8-1 1-10 20-109 8-45 1-4z" fill="#fff"/>
<path transform="translate(1634,416)" d="m0 0h2v8l-4 16-8 16-7 10-12 12-10 7-16 8-13 4-9 2-17 1-14-1-19-5-16-8-9-6-13-12-9-12-7-15-4-15-1-9h3l8 20 6 9 9 10 10 8 14 8 16 6 17 3h22l17-3 14-5 15-8 10-8 9-9 6-9 6-12 3-10z" fill="#fff"/>
<path transform="translate(926,418)" d="m0 0h3l6 18 7 12 8 9 14 11 15 8 16 5 12 2h28l17-4 12-5 15-8 13-11 10-13 5-11 3-10 4-2-1 10-4 15-8 16-8 10-11 11-14 9-16 7-18 4h-30l-16-4-15-6-11-7-10-9-7-7-10-15-5-12-3-15z" fill="#fff"/>
<path transform="translate(581,50)" d="m0 0 3 1v422h-4l-1-8v-413z" fill="#fff"/>
<path transform="translate(1744,172)" d="m0 0h11l8 3 7 7 3 6 1 4v8l-3 7-7 8-8 4h-14l-6-4-5-5-4-7-1-3v-7l3-9 3-5h2v-2zm2 6-3 2 13 4 3 4-1 6-1 7 3 2 2 4 3-3 2-4v-9l-4-7-6-5-3-1zm-5 2v3l5-1-3-2zm-3 2 1 2 1-2zm-3 4-2 5v9l5 8 5 4 3 1h7l7-3v-2l-7-1-5-6h-1l-1 6h-5l-2-7v-14l-2 2zm12 2 1 3zm3 0 1 3z" fill="#fff"/>
<path transform="translate(1295,367)" d="m0 0h6l3 3 8 17 3 2 1-12 2-9 5-1 1 1-1 10-4 19 3-1 8-16 7-11 2-2 6 1 3 7 4 22v4l-5 1-2-2-1-8-13 1-3 6-5 3-10-1-6-9-6-11h-2v7l-3 12-5 1-1-5 3-14 1-14zm46 9-5 5-2 3v3h9l-1-11zm-41 2 1 2z" fill="#fff"/>
<path transform="translate(1480,366)" d="m0 0h8l6 2 1 4-4 2-4-1h-7l-5 3-2 5-1 8 1 6 16 1 1 2 10-19 6-9 3-3 5 1 4 9 3 21-2 4-4-1-1-5-1-3-13-1-2 6-3 4-6-1-3 1h-9l-8-2-4-7v-12l4-8 7-6zm29 10-4 5-1 6h9l-1-8-1-3z" fill="#fff"/>
<path transform="translate(1131,367)" d="m0 0 7 1 3 5 9 16 4-21 5-1 1 5-5 28-2 2-4-1-5-8-6-12h-3v8l-3 12-4 1-2-2 2-14 1-4 1-14zm5 11 1 2z" fill="#fff"/>
<path transform="translate(1412,366)" d="m0 0h7l7 3 4 6v11l-3 8-4 5-7 3h-10l-5-3-4-8v-8l4-9 7-7zm0 6-4 2-4 8v11l3 3 6 1 6-3 4-7 1-8-2-5-2-2z" fill="#fff"/>
<path transform="translate(1107,366)" d="m0 0h7l7 3 3 3 1 3v10l-4 11-5 4-5 2h-10l-5-3-3-6v-12l2-7 1-2h2l5-5zm-1 6-4 4-2 4-1 10 2 5 6 2 7-3 4-6 1-9-2-5-3-2z" fill="#fff"/>
<path transform="translate(1272,366)" d="m0 0 11 1 5 6 1 3v8l-3 10-5 6-6 2h-9l-5-2-4-6v-13l5-10 5-4zm-2 6-5 6-2 6v7l2 4 7 2 5-2 4-5 2-7-1-8-4-3z" fill="#fff"/>
<path transform="translate(1360,367)" d="m0 0h18l5 3 1 2v8l-4 6-2 2v5l3 5-1 4-6-2-5-10-6-2-2 12-4 2-2-2 1-12 3-20zm6 5-2 6v5l8 1 5-3 1-7-3-2z" fill="#fff"/>
<path transform="translate(1530,367)" d="m0 0h5l1 4-4 24 12 1 3 2 2-6 4-24 1-1h5l1 1-1 10-4 21-2 3h-15l-13-1-1-3 4-26z" fill="#fff"/>
<path transform="translate(1194,367)" d="m0 0h22l2 1-1 4h-17l-1 9h10l3 2-1 4h-13l-2 9 15-1 1 1v5l-2 1h-17l-4-1 1-12 3-21z" fill="#fff"/>
<path transform="translate(1227,366)" d="m0 0h10l6 1 1 4-2 2-15-1-1 6 8 4 7 4 1 6-2 5-4 4h-19l-1-1v-5l3-1 3 1h10l3-2-1-4-12-5-3-5v-8h3l2-4z" fill="#fff"/>
<path transform="translate(768,348)" d="m0 0h5l-1 5-13 24-9 22-5 17-3 13h-2v-9l3-15 6-21 9-21 7-13z" fill="#fff"/>
<path transform="translate(1171,367)" d="m0 0h17l4 1v6l-1-2-4 2-4-1h-8l-5 5-2 8 1 7 2 2h13l1 5-5 2h-9l-7-3-3-6v-11l4-9 5-5z" fill="#fff"/>
<path transform="translate(1082,366)" d="m0 0 10 1 2 2v4h-15l-4 4-3 8 1 8 2 2h14l1 5-4 2h-11l-6-3-3-3-1-3v-11l4-9 7-6z" fill="#fff"/>
<path transform="translate(1249,367)" d="m0 0h6v10l-4 24-6 1-1-5 3-17 1-12z" fill="#fff"/>
<path transform="translate(1390,367)" d="m0 0h5l1 1-1 13-3 19-5 2-2-4 4-30z" fill="#fff"/>
<path transform="translate(1440,386)" d="m0 0h12l2 1v4l-5 1h-7l-3-3z" fill="#fff"/>
<path transform="translate(1395,383)" d="m0 0h1v5h-1z" fill="#fff"/>
<path transform="translate(1159,382)" d="m0 0 1 4z" fill="#fff"/>
<path transform="translate(1736,202)" d="m0 0" fill="#fff"/>
<path transform="translate(1741,181)" d="m0 0 2 1z" fill="#fff"/>
<path transform="translate(1187,398)" d="m0 0" fill="#fff"/>
<path transform="translate(1255,381)" d="m0 0" fill="#fff"/>
<path transform="translate(1340,378)" d="m0 0" fill="#fff"/>
<path transform="translate(1509,377)" d="m0 0" fill="#fff"/>
<path transform="translate(1094,374)" d="m0 0" fill="#fff"/>
<path transform="translate(1387,371)" d="m0 0" fill="#fff"/>
<path transform="translate(1738,206)" d="m0 0" fill="#fff"/>
<path transform="translate(1737,204)" d="m0 0" fill="#fff"/>
<path transform="translate(1763,203)" d="m0 0" fill="#fff"/>
<path transform="translate(971,184)" d="m0 0" fill="#fff"/>
<path transform="translate(1747,179)" d="m0 0" fill="#fff"/>
<path transform="translate(303,88)" d="m0 0" fill="#fff"/>
</svg>
